<svg width="334" height="40" viewBox="0 0 334 40" fill="none" xmlns="http://www.w3.org/2000/svg">
<g clip-path="url(#clip0_1283_42172)">
<path fill-rule="evenodd" clip-rule="evenodd" d="M196.129 11.0388C196.151 9.70488 195.093 8.60278 193.76 8.56983C193.105 8.55366 192.471 8.80252 192.002 9.26C191.534 9.71748 191.269 10.3448 191.27 10.9998C191.27 12.334 192.346 13.4183 193.68 13.429C195.014 13.4397 196.107 12.3728 196.129 11.0388ZM191.848 30.2H195.648V16.03H191.848V30.2Z" fill="#6E46CF"/>
<path fill-rule="evenodd" clip-rule="evenodd" d="M198.578 30.1998V16.0298H202.228V17.1598C203.354 16.2322 204.769 15.7265 206.228 15.7298C208.122 15.7247 209.92 16.5598 211.138 18.0098C212.078 19.1198 212.598 20.5498 212.598 23.0098V30.1998H208.798V22.6898C208.908 21.7241 208.602 20.7574 207.958 20.0298C207.377 19.4949 206.608 19.211 205.818 19.2398C204.467 19.2782 203.205 19.9205 202.378 20.9898V30.1998H198.578Z" fill="#6E46CF"/>
<path fill-rule="evenodd" clip-rule="evenodd" d="M225.169 29.06V30.2H228.809V9.5H225.009V17.01C223.869 16.1204 222.455 15.6539 221.009 15.69C219.092 15.7208 217.269 16.5234 215.951 17.9162C214.634 19.309 213.934 21.1743 214.009 23.09C213.989 24.9223 214.636 26.6994 215.829 28.09C217.182 29.6197 219.127 30.494 221.169 30.49C222.633 30.5227 224.058 30.0134 225.169 29.06ZM221.498 19.2403C222.883 19.2316 224.189 19.8811 225.018 20.9903L225.008 25.2303C224.222 26.3366 222.945 26.9898 221.588 26.9803C220.573 26.9921 219.598 26.5866 218.891 25.8587C218.184 25.1308 217.807 24.1443 217.848 23.1303C217.799 22.1259 218.16 21.1447 218.848 20.4113C219.536 19.678 220.493 19.2554 221.498 19.2403Z" fill="#6E46CF"/>
<path fill-rule="evenodd" clip-rule="evenodd" d="M237.998 30.4995C240.211 30.524 242.328 29.595 243.808 27.9495L241.648 25.7895C240.732 26.8004 239.442 27.3928 238.078 27.4295C236.116 27.4963 234.442 26.0237 234.258 24.0695H244.068C244.13 23.713 244.161 23.3515 244.158 22.9895C244.158 19.0395 241.388 15.7395 237.468 15.7395C233.258 15.7395 230.568 19.1895 230.568 23.1395C230.49 25.1267 231.25 27.0554 232.663 28.455C234.076 29.8546 236.012 30.5964 237.998 30.4995ZM237.496 18.7991C238.913 18.8132 240.101 19.873 240.276 21.2791H234.496C234.781 19.8452 236.034 18.809 237.496 18.7991Z" fill="#6E46CF"/>
<path fill-rule="evenodd" clip-rule="evenodd" d="M249.568 16.0302H245.908L245.898 37.2102H249.698V29.2102C250.779 30.0636 252.121 30.5191 253.498 30.5002C255.568 30.5289 257.55 29.6654 258.938 28.1302C260.116 26.7329 260.748 24.957 260.718 23.1302C260.794 21.2144 260.094 19.3492 258.776 17.9564C257.459 16.5636 255.635 15.761 253.718 15.7302C252.211 15.7129 250.745 16.2182 249.568 17.1602V16.0302ZM253.127 26.9805C251.77 26.99 250.493 26.3368 249.707 25.2305V20.9905C250.535 19.8854 251.836 19.2366 253.217 19.2405C254.223 19.2556 255.179 19.6782 255.867 20.4115C256.555 21.1448 256.916 22.1261 256.867 23.1305C256.911 24.1453 256.535 25.1334 255.827 25.862C255.12 26.5906 254.143 26.9952 253.127 26.9805Z" fill="#6E46CF"/>
<path fill-rule="evenodd" clip-rule="evenodd" d="M269.109 30.5C271.325 30.5235 273.444 29.5949 274.929 27.95L272.769 25.79C271.853 26.8009 270.563 27.3933 269.199 27.43C267.235 27.4972 265.558 26.0257 265.369 24.07H275.189C275.252 23.7134 275.282 23.352 275.279 22.99C275.279 19.04 272.499 15.74 268.589 15.74C264.379 15.74 261.689 19.19 261.689 23.14C261.611 25.1254 262.37 27.0524 263.781 28.4516C265.191 29.8509 267.124 30.594 269.109 30.5ZM268.59 18.8C270.016 18.7998 271.218 19.8643 271.39 21.28H265.59C265.871 19.8441 267.127 18.8061 268.59 18.8Z" fill="#6E46CF"/>
<path fill-rule="evenodd" clip-rule="evenodd" d="M277.031 30.1997V16.0297H280.681V17.1597C281.809 16.2344 283.223 15.729 284.681 15.7297C286.574 15.7274 288.372 16.562 289.591 18.0097C290.688 19.4345 291.209 21.219 291.051 23.0097V30.1997H287.251V22.6897C287.363 21.7221 287.054 20.7531 286.401 20.0297C285.822 19.4974 285.057 19.2137 284.271 19.2397C282.917 19.278 281.652 19.92 280.821 20.9897V30.1997H277.031Z" fill="#6E46CF"/>
<path fill-rule="evenodd" clip-rule="evenodd" d="M303.621 29.0602V30.2002H307.271V9.50024H303.471V17.0202C302.33 16.1329 300.917 15.6666 299.471 15.7002C297.563 15.7443 295.752 16.5527 294.446 17.944C293.139 19.3353 292.446 21.193 292.521 23.1002C292.502 24.9306 293.145 26.7064 294.331 28.1002C295.688 29.6305 297.636 30.5045 299.681 30.5002C301.126 30.5163 302.527 30.0043 303.621 29.0602ZM299.99 19.2403C301.371 19.2363 302.673 19.8852 303.5 20.9903V25.2303C302.714 26.3366 301.438 26.9898 300.08 26.9803C299.065 26.995 298.088 26.5904 297.38 25.8618C296.672 25.1332 296.296 24.1451 296.34 23.1303C296.291 22.1258 296.652 21.1446 297.34 20.4113C298.029 19.6779 298.985 19.2553 299.99 19.2403Z" fill="#6E46CF"/>
<path fill-rule="evenodd" clip-rule="evenodd" d="M316.5 30.5C318.699 30.5092 320.797 29.5818 322.27 27.95L320.06 25.78C319.146 26.7884 317.861 27.3806 316.5 27.42C314.574 27.4399 312.952 25.9865 312.76 24.07H322.58C322.643 23.7134 322.673 23.352 322.67 22.99C322.67 19.04 319.89 15.74 315.97 15.74C311.77 15.74 309.08 19.19 309.08 23.14C308.999 25.1263 309.757 27.0551 311.168 28.455C312.58 29.855 314.515 30.5971 316.5 30.5ZM315.922 18.7996C317.35 18.7987 318.555 19.8622 318.732 21.2796H312.922C313.203 19.8436 314.459 18.8057 315.922 18.7996Z" fill="#6E46CF"/>
<path fill-rule="evenodd" clip-rule="evenodd" d="M332.991 19.3898C332.543 19.2784 332.082 19.2279 331.621 19.2398C330.209 19.2868 328.914 20.0375 328.171 21.2398V30.1998H324.371V16.0298H328.021V17.4998C329.072 16.3429 330.58 15.7097 332.141 15.7698C332.574 15.7728 333.005 15.813 333.431 15.8898L332.991 19.3898Z" fill="#6E46CF"/>
<path fill-rule="evenodd" clip-rule="evenodd" d="M179.358 28.0999V18.1199L170.718 13.1399L162.078 18.1199V28.0999L170.718 33.0899L179.358 28.0999Z" fill="#6E46CF"/>
<path fill-rule="evenodd" clip-rule="evenodd" d="M156.68 31.2199L170.72 39.3299V33.0899L162.08 28.0999V18.1199L156.68 14.9999" fill="#67C0E7"/>
<path fill-rule="evenodd" clip-rule="evenodd" d="M179.359 18.12V28.1L170.719 33.09V39.33L184.769 31.22V15L179.359 18.12Z" fill="#FFF066"/>
<path fill-rule="evenodd" clip-rule="evenodd" d="M170.72 6.88989L156.68 14.9999L162.08 18.1199L170.72 13.1399L179.36 18.1199L184.77 14.9999L170.72 6.88989Z" fill="#F66688"/>
<path fill-rule="evenodd" clip-rule="evenodd" d="M170.719 33.0899V39.3299L184.769 31.2199L179.359 28.0999L170.719 33.0899Z" fill="#FFDF35"/>
<path fill-rule="evenodd" clip-rule="evenodd" d="M162.08 18.1199L156.68 14.9999V31.2199L162.08 28.0999V18.1199Z" fill="#03A9F4"/>
<path fill-rule="evenodd" clip-rule="evenodd" d="M179.359 18.1199L184.769 14.9999L170.719 6.88989V13.1399L179.359 18.1199Z" fill="#F73568"/>
<path d="M7.723 30.5H6.576L1.12 16.364H2.949L7.227 27.462L11.753 16.364H12.869L17.395 27.462L21.673 16.364H23.502L18.046 30.5H16.899L12.311 19.247L7.723 30.5Z" fill="#6E46CF"/>
<path d="M32.2663 17.728C31.6463 17.728 31.0573 17.8417 30.4993 18.069C29.9619 18.2757 29.4866 18.565 29.0733 18.937C28.6599 19.309 28.2983 19.7533 27.9883 20.27C27.6989 20.7867 27.4923 21.355 27.3683 21.975H37.0093C36.9059 21.355 36.7199 20.7867 36.4513 20.27C36.1826 19.7533 35.8313 19.309 35.3973 18.937C34.9839 18.5443 34.5086 18.2447 33.9713 18.038C33.4546 17.8313 32.8863 17.728 32.2663 17.728ZM38.3733 28.206C37.8359 28.8673 37.0816 29.4667 36.1103 30.004C35.1389 30.5413 33.9713 30.81 32.6073 30.81C31.6153 30.81 30.6853 30.6343 29.8173 30.283C28.9493 29.9317 28.1949 29.4357 27.5543 28.795C26.9343 28.1337 26.4383 27.3483 26.0663 26.439C25.6943 25.5297 25.5083 24.5273 25.5083 23.432C25.5083 22.4193 25.6736 21.4687 26.0043 20.58C26.3349 19.6707 26.7896 18.8853 27.3683 18.224C27.9676 17.5627 28.6806 17.0357 29.5073 16.643C30.3546 16.2503 31.2743 16.054 32.2663 16.054C33.2169 16.054 34.0849 16.2297 34.8703 16.581C35.6763 16.9323 36.3686 17.418 36.9473 18.038C37.5466 18.658 38.0116 19.3917 38.3423 20.239C38.6729 21.0657 38.8383 21.975 38.8383 22.967C38.8383 23.029 38.8383 23.1117 38.8383 23.215C38.8383 23.3183 38.8279 23.4423 38.8073 23.587H27.2753C27.2959 24.331 27.4303 25.044 27.6783 25.726C27.9469 26.3873 28.3086 26.9763 28.7633 27.493C29.2179 27.989 29.7656 28.392 30.4063 28.702C31.0676 28.9913 31.8013 29.136 32.6073 29.136C33.5373 29.136 34.3846 28.9603 35.1493 28.609C35.9139 28.237 36.5753 27.71 37.1333 27.028L38.3733 28.206Z" fill="#6E46CF"/>
<path d="M42.8537 8.49H44.6207V30.5H42.8537V8.49Z" fill="#6E46CF"/>
<path d="M59.6732 30.5L51.6442 23.029V30.5H49.8772V8.49H51.6442V22.254L58.8672 16.364H61.5022L53.7522 22.719L62.1532 30.5H59.6732Z" fill="#6E46CF"/>
<path d="M76.8191 23.432C76.8191 22.6467 76.6744 21.913 76.3851 21.231C76.1164 20.5283 75.7341 19.9187 75.2381 19.402C74.7627 18.8853 74.1841 18.4823 73.5021 18.193C72.8408 17.883 72.1071 17.728 71.3011 17.728C70.4951 17.728 69.7511 17.883 69.0691 18.193C68.4078 18.4823 67.8291 18.8853 67.3331 19.402C66.8577 19.9187 66.4754 20.5283 66.1861 21.231C65.9174 21.913 65.7831 22.6467 65.7831 23.432C65.7831 24.2173 65.9174 24.9613 66.1861 25.664C66.4754 26.346 66.8577 26.9453 67.3331 27.462C67.8291 27.9787 68.4078 28.392 69.0691 28.702C69.7511 28.9913 70.4951 29.136 71.3011 29.136C72.1071 29.136 72.8408 28.9913 73.5021 28.702C74.1841 28.392 74.7627 27.9787 75.2381 27.462C75.7341 26.9453 76.1164 26.346 76.3851 25.664C76.6744 24.9613 76.8191 24.2173 76.8191 23.432ZM78.5861 23.432C78.5861 24.4447 78.4001 25.4057 78.0281 26.315C77.6768 27.2037 77.1704 27.9787 76.5091 28.64C75.8684 29.3013 75.1038 29.8283 74.2151 30.221C73.3264 30.6137 72.3551 30.81 71.3011 30.81C70.2471 30.81 69.2757 30.6137 68.3871 30.221C67.4984 29.8283 66.7234 29.3013 66.0621 28.64C65.4214 27.9787 64.9151 27.2037 64.5431 26.315C64.1918 25.4057 64.0161 24.4447 64.0161 23.432C64.0161 22.4193 64.1918 21.4687 64.5431 20.58C64.9151 19.6707 65.4214 18.8853 66.0621 18.224C66.7234 17.5627 67.4984 17.0357 68.3871 16.643C69.2757 16.2503 70.2471 16.054 71.3011 16.054C72.3551 16.054 73.3264 16.2503 74.2151 16.643C75.1038 17.0357 75.8684 17.5627 76.5091 18.224C77.1704 18.8853 77.6768 19.6707 78.0281 20.58C78.4001 21.4687 78.5861 22.4193 78.5861 23.432Z" fill="#6E46CF"/>
<path d="M84.3078 18.286C84.8244 17.6247 85.4961 17.0873 86.3228 16.674C87.1701 16.2607 88.0898 16.054 89.0818 16.054C90.2598 16.054 91.3138 16.3227 92.2438 16.86C93.1738 17.3973 93.8868 18.131 94.3828 19.061C94.6308 18.7097 94.9201 18.3583 95.2508 18.007C95.6021 17.635 96.0051 17.3043 96.4598 17.015C96.9144 16.7257 97.4311 16.4983 98.0098 16.333C98.5884 16.147 99.2291 16.054 99.9318 16.054C101.11 16.054 102.153 16.3227 103.063 16.86C103.993 17.3973 104.716 18.1207 105.233 19.03C105.501 19.5053 105.708 20.053 105.853 20.673C105.997 21.293 106.07 22.0783 106.07 23.029V30.5H104.303V23.246C104.303 22.254 104.23 21.4893 104.086 20.952C103.941 20.4147 103.745 19.96 103.497 19.588C103.125 19.03 102.629 18.5857 102.009 18.255C101.409 17.9037 100.717 17.728 99.9318 17.728C99.3738 17.728 98.8468 17.821 98.3508 18.007C97.8548 18.193 97.4001 18.441 96.9868 18.751C96.5734 19.0403 96.2014 19.3813 95.8708 19.774C95.5401 20.1667 95.2714 20.58 95.0648 21.014C95.1061 21.3033 95.1371 21.6133 95.1578 21.944C95.1991 22.2747 95.2198 22.6363 95.2198 23.029V30.5H93.4528V23.246C93.4528 22.254 93.3804 21.4893 93.2358 20.952C93.0911 20.4147 92.8948 19.96 92.6468 19.588C92.2748 19.03 91.7788 18.5857 91.1588 18.255C90.5594 17.9037 89.8671 17.728 89.0818 17.728C88.1104 17.728 87.2011 17.9967 86.3538 18.534C85.5064 19.0713 84.8451 19.7843 84.3698 20.673V30.5H82.6028V16.364H84.3078V18.286Z" fill="#6E46CF"/>
<path d="M121.152 26.036C121.71 27.0073 122.423 27.772 123.291 28.33C124.18 28.8673 125.151 29.136 126.205 29.136C126.804 29.136 127.373 29.043 127.91 28.857C128.447 28.6503 128.943 28.392 129.398 28.082C130.08 27.6067 130.617 26.966 131.01 26.16C131.423 25.3333 131.63 24.424 131.63 23.432C131.63 22.502 131.454 21.6547 131.103 20.89C130.752 20.1047 130.266 19.4537 129.646 18.937C129.15 18.5237 128.602 18.224 128.003 18.038C127.424 17.8313 126.835 17.728 126.236 17.728C125.575 17.728 124.965 17.8313 124.407 18.038C123.87 18.224 123.384 18.4617 122.95 18.751C122.516 19.0403 122.144 19.3503 121.834 19.681C121.524 20.0117 121.297 20.3113 121.152 20.58V26.036ZM126.174 30.81C125.058 30.81 124.066 30.593 123.198 30.159C122.33 29.725 121.627 29.1463 121.09 28.423V30.5H119.385V8.49H121.152V18.255C121.813 17.5317 122.578 16.984 123.446 16.612C124.335 16.24 125.275 16.054 126.267 16.054C127.135 16.054 127.951 16.1987 128.716 16.488C129.481 16.7773 130.163 17.1597 130.762 17.635C131.568 18.317 132.209 19.1643 132.684 20.177C133.159 21.169 133.397 22.254 133.397 23.432C133.397 24.7133 133.128 25.881 132.591 26.935C132.054 27.9683 131.32 28.8157 130.39 29.477C129.687 29.973 128.974 30.314 128.251 30.5C127.528 30.7067 126.835 30.81 126.174 30.81Z" fill="#6E46CF"/>
<path d="M137.428 16.364H139.195V30.5H137.428V16.364ZM136.746 11.466C136.746 11.032 136.891 10.66 137.18 10.35C137.49 10.04 137.862 9.885 138.296 9.885C138.73 9.885 139.102 10.04 139.412 10.35C139.722 10.66 139.877 11.032 139.877 11.466C139.877 11.9 139.722 12.272 139.412 12.582C139.102 12.8713 138.73 13.016 138.296 13.016C137.862 13.016 137.49 12.8713 137.18 12.582C136.891 12.272 136.746 11.9 136.746 11.466Z" fill="#6E46CF"/>
<path d="M141.661 36.514C141.827 36.5553 141.971 36.576 142.095 36.576C142.219 36.576 142.333 36.576 142.436 36.576C142.994 36.576 143.521 36.4623 144.017 36.235C144.513 36.0077 144.906 35.677 145.195 35.243C145.402 34.9537 145.547 34.6023 145.629 34.189C145.733 33.7757 145.784 33.1453 145.784 32.298V16.364H147.551V32.298C147.551 33.414 147.458 34.282 147.272 34.902C147.086 35.5427 146.807 36.0903 146.435 36.545C145.981 37.0823 145.412 37.4957 144.73 37.785C144.048 38.095 143.315 38.25 142.529 38.25C142.364 38.25 142.178 38.2397 141.971 38.219C141.785 38.219 141.63 38.1983 141.506 38.157L141.661 36.514ZM145.102 11.466C145.102 11.032 145.247 10.66 145.536 10.35C145.846 10.04 146.218 9.885 146.652 9.885C147.086 9.885 147.458 10.04 147.768 10.35C148.078 10.66 148.233 11.032 148.233 11.466C148.233 11.9 148.078 12.272 147.768 12.582C147.458 12.8713 147.086 13.016 146.652 13.016C146.218 13.016 145.846 12.8713 145.536 12.582C145.247 12.272 145.102 11.9 145.102 11.466Z" fill="#6E46CF"/>
</g>
<defs>
<clipPath id="clip0_1283_42172">
<rect width="333" height="39" fill="white" transform="translate(0.5 0.5)"/>
</clipPath>
</defs>
</svg>
