<svg xmlns="http://www.w3.org/2000/svg" width="150" viewBox="0 0 176.75 32.44"><defs><style>.a{fill:#6e46cf;}.b{fill:#67c0e7;}.c{fill:#fff066;}.d{fill:#f66688;}.e{fill:#ffdf35;}.f{fill:#03a9f4;}.g{fill:#f73568;}</style></defs><path class="a" d="M37.08,1.68A2.43,2.43,0,1,1,34.6,4.11,2.43,2.43,0,0,1,37.08,1.68ZM39,23.3h-3.8V9.13H39Z"/><path class="a" d="M41.9,23.3V9.13h3.66v1.14a6.21,6.21,0,0,1,4-1.43,6.39,6.39,0,0,1,4.91,2.28,7.17,7.17,0,0,1,1.46,5V23.3h-3.8V15.79a3.38,3.38,0,0,0-.85-2.65,3,3,0,0,0-2.13-.79A4.53,4.53,0,0,0,45.7,14.1v9.2Z"/><path class="a" d="M68.49,23.3V22.17a5.93,5.93,0,0,1-3.94,1.43,7.13,7.13,0,0,1-5.35-2.4,7.6,7.6,0,0,1-1.81-5,7.11,7.11,0,0,1,7-7.39,6.33,6.33,0,0,1,4,1.31V2.56h3.8V23.3Zm-.14-9.2a4.37,4.37,0,0,0-3.51-1.75,3.7,3.7,0,0,0-3.65,3.88,3.7,3.7,0,0,0,3.74,3.86,4.16,4.16,0,0,0,3.42-1.75Z"/><path class="a" d="M87.14,21.05a7.71,7.71,0,0,1-5.82,2.55,7.08,7.08,0,0,1-7.42-7.37c0-3.94,2.69-7.39,6.9-7.39,3.91,0,6.69,3.3,6.69,7.25a6,6,0,0,1-.09,1.08H77.58a3.73,3.73,0,0,0,3.83,3.36A5,5,0,0,0,85,18.89ZM83.6,14.39a2.83,2.83,0,0,0-2.8-2.48,3.07,3.07,0,0,0-3,2.48Z"/><path class="a" d="M89.24,9.13h3.65v1.14A6.54,6.54,0,0,1,97,8.84a7.11,7.11,0,0,1,7,7.39,7.58,7.58,0,0,1-1.79,5,7.18,7.18,0,0,1-5.37,2.4A6,6,0,0,1,93,22.31v8h-3.8ZM93,18.34a4.16,4.16,0,0,0,3.42,1.75,3.71,3.71,0,0,0,3.74-3.86,3.7,3.7,0,0,0-3.65-3.88A4.36,4.36,0,0,0,93,14.1Z"/><path class="a" d="M118.25,21.05a7.67,7.67,0,0,1-5.81,2.55A7.08,7.08,0,0,1,105,16.23c0-3.94,2.68-7.39,6.89-7.39,3.92,0,6.69,3.3,6.69,7.25a7.2,7.2,0,0,1-.08,1.08H108.7a3.72,3.72,0,0,0,3.82,3.36,5,5,0,0,0,3.57-1.64Zm-3.53-6.66a2.83,2.83,0,0,0-2.81-2.48,3.08,3.08,0,0,0-3,2.48Z"/><path class="a" d="M120.36,23.3V9.13H124v1.14a6.21,6.21,0,0,1,4-1.43,6.39,6.39,0,0,1,4.91,2.28c.94,1.11,1.46,2.54,1.46,5V23.3h-3.8V15.79a3.38,3.38,0,0,0-.85-2.65,3,3,0,0,0-2.13-.79,4.53,4.53,0,0,0-3.45,1.75v9.2Z"/><path class="a" d="M147,23.3V22.17A6,6,0,0,1,143,23.6a7.11,7.11,0,0,1-5.34-2.4,7.55,7.55,0,0,1-1.82-5,7.11,7.11,0,0,1,7-7.39,6.3,6.3,0,0,1,4,1.31V2.56h3.8V23.3Zm-.15-9.2a4.35,4.35,0,0,0-3.5-1.75,3.7,3.7,0,0,0-3.66,3.88,3.71,3.71,0,0,0,3.74,3.86,4.16,4.16,0,0,0,3.42-1.75Z"/><path class="a" d="M165.59,21.05a7.68,7.68,0,0,1-5.82,2.55,7.09,7.09,0,0,1-7.42-7.37c0-3.94,2.69-7.39,6.9-7.39,3.92,0,6.69,3.3,6.69,7.25a6,6,0,0,1-.09,1.08H156a3.74,3.74,0,0,0,3.83,3.36,5,5,0,0,0,3.57-1.64Zm-3.53-6.66a2.83,2.83,0,0,0-2.81-2.48,3.08,3.08,0,0,0-3,2.48Z"/><path class="a" d="M176.31,12.49a5.16,5.16,0,0,0-1.37-.14,4.2,4.2,0,0,0-3.45,2V23.3h-3.8V9.13h3.66v1.43a5.29,5.29,0,0,1,4.12-1.72,7.53,7.53,0,0,1,1.28.12Z"/><polygon class="a" points="22.68 21.21 22.68 11.23 14.05 6.24 5.41 11.23 5.41 21.21 14.05 26.19 22.68 21.21"/><polyline class="b" points="0 24.33 14.05 32.44 14.05 26.19 5.41 21.21 5.41 11.23 0 8.11"/><polygon class="c" points="22.68 11.23 22.68 21.21 14.05 26.19 14.05 32.44 28.09 24.33 28.09 8.11 22.68 11.23"/><polygon class="d" points="14.05 0 0 8.11 5.41 11.23 14.05 6.24 22.68 11.23 28.09 8.11 14.05 0"/><polygon class="e" points="14.05 26.19 14.05 32.44 28.09 24.33 22.68 21.21 14.05 26.19"/><polygon class="f" points="5.41 11.23 0 8.11 0 24.33 5.41 21.21 5.41 11.23"/><polygon class="g" points="22.68 11.23 28.09 8.11 14.05 0 14.05 6.24 22.68 11.23"/></svg>