<svg xmlns="http://www.w3.org/2000/svg" viewBox="0 0 1236.55 400" role="img" aria-labelledby="scrumOrgLogoTitle">
  <title id="scrumOrgLogoTitle">Scrum.org logo</title>
  <path d="M446.23,136.46c-4.81-6.78-13.37-10-22.11-10-10.34,0-20.68,4.64-20.68,16.23,0,25.32,59.91,10.88,59.91,55.82,0,27.1-21.4,40.3-46.18,40.3-15.7,0-31-4.82-41.37-17.12l16.94-16.41a29.77,29.77,0,0,0,25,13.2c10.34,0,22.11-5.71,22.11-17.3,0-27.64-59.91-11.77-59.91-56.89,0-26,23.18-38.16,46.54-38.16,13.2,0,26.39,3.75,36.2,13Z" fill="#405870"/>
  <path d="M539.68,175.69c-5-5.17-10.52-8.56-16.23-8.56-15.69,0-25.14,12.31-25.14,25.68s9.45,25.68,25.14,25.68a20.56,20.56,0,0,0,16.59-8L554.3,225.8c-8.74,8.74-23.36,11.95-30.85,11.95-25.86,0-46.54-18-46.54-44.94s20.68-44.94,46.54-44.94c10.88,0,22.83,3.92,31,13Z" fill="#405870"/>
  <path d="M569.28,150h21.4v13.55H591c4.64-9.8,14.09-15.69,25.32-15.69a27.72,27.72,0,0,1,7.67,1.25v20.69a42.51,42.51,0,0,0-10.34-1.61c-20.15,0-23,16.94-23,21.58v45.83h-21.4Z" fill="#405870"/>
  <path d="M718,235.61H697.68V221.88h-.36c-3.92,8.56-11.94,15.87-26.21,15.87-23,0-31.21-16.23-31.21-33.71V150h21.4v43.33c0,9.46.71,25.15,15.69,25.15,14.09,0,19.62-10.34,19.62-21.76V150H718Z" fill="#405870"/>
  <path d="M738.52,150h20.33v13.38h.36c3.74-8,11.94-15.52,26.21-15.52,13.19,0,22.29,5.17,26.75,15.87,6.24-10.88,15.33-15.87,28.17-15.87,22.83,0,30.85,16.23,30.85,36.74v51h-21.4V187.1c0-10.7-3.21-20-15.87-20-13.37,0-18.36,11.06-18.36,22.11v46.37h-21.4v-51c0-10.52-4.28-17.48-14.63-17.48-14.08,0-19.61,10.34-19.61,21.76v46.72h-21.4Z" fill="#405870"/>
  <path d="M902.05,219.56a8.56,8.56,0,1,1-8.56,8.56A8.45,8.45,0,0,1,902.05,219.56Z" fill="#405870"/>
  <path d="M970.17,151.08c25.32,0,43.33,18.19,43.33,43.33s-18,43.34-43.33,43.34-43.33-18.19-43.33-43.34S944.85,151.08,970.17,151.08Zm0,77c20.15,0,32.63-15.16,32.63-33.71s-12.48-33.7-32.63-33.7-32.63,15.16-32.63,33.7S950,228.12,970.17,228.12Z" fill="#405870"/>
  <path d="M1032.94,176.4c0-6.06-.89-18.9-.89-23.18h10.7c.18,6.06.36,12.84.72,14.45,5.34-9.63,13.9-16.59,26.21-16.59a25.34,25.34,0,0,1,6.24.89l-1.25,10.52a13.29,13.29,0,0,0-4.1-.71c-18.55,0-26.93,12.84-26.93,28.89v44.94h-10.7Z" fill="#405870"/>
  <path d="M1168.3,230.26c0,41-27.11,48.15-43.87,48.15-16.59,0-32.46-6.42-40.84-17.3l8.38-7.85c7.49,10.52,19.62,15.52,32.46,15.52,32.63,0,33.17-28.54,33.17-37.81V219.56h-.36c-6.24,9.81-17.12,16.05-31.21,16.05-24.25,0-44-19.08-44-42.27s19.79-42.26,44-42.26c14.09,0,25,6.24,31.21,16h.36V153.22h10.7Zm-43-69.55A32.64,32.64,0,1,0,1158,193.34,32.64,32.64,0,0,0,1125.32,160.71Z" fill="#405870"/>
  <path d="M95.92,193.77A110.9,110.9,0,0,1,110.19,159a122.68,122.68,0,0,1,23.53-27.48A120.51,120.51,0,0,0,115,152a95.34,95.34,0,0,1,13.09-14.78,97.39,97.39,0,0,1,16-11.87A77,77,0,0,1,137.7,131c-2.33,2-4.32,4-4.63,5.24a130.79,130.79,0,0,0-29.77,39.52A122,122,0,0,0,91,223.84,30.42,30.42,0,0,1,91.46,207c1.41-4.74,3.39-8.76,4.46-13.23" fill="#415870"/>
  <path d="M160.05,65a86.36,86.36,0,0,1,24.4,16,94.92,94.92,0,0,1,17.43,22A93.18,93.18,0,0,0,189,85.78a74.62,74.62,0,0,1,9.32,12.15A77,77,0,0,1,205,111.85a56.48,56.48,0,0,1-3.35-5.71c-1.17-2-2.39-3.87-3.32-4.29a101.17,101.17,0,0,0-25.67-28.52,94.64,94.64,0,0,0-34.78-16.49,23.48,23.48,0,0,1,12.75,2.84c3.41,1.78,6.17,3.89,9.42,5.36" fill="#189ab6"/>
  <path d="M197.06,143.16a60.85,60.85,0,0,1-1.58,20.72c-1.6,6.91-3.94,13.47-5.86,19.79,4.15-6.49,7.47-15.2,9.34-22.65s2.76-13.6,4.58-14.88,2.33,4.47,1.11,12.08a78.09,78.09,0,0,1-2.94,11.94c-1.28,4-2.78,7.65-4,10.65,1-1.43,1-1.43,2-2.91a11.78,11.78,0,0,0-2.18,4.48,58.4,58.4,0,0,0,3.55-5.73,26.28,26.28,0,0,1,3.12-4.84c0,1.09,0,2.19-.06,3.3,2.73-3.93,5.15-10.32,6.67-17s2.22-13.6,3.11-18.59a127.78,127.78,0,0,1-8.53,36.92,102.85,102.85,0,0,1-22.13,34A92.8,92.8,0,0,1,147.69,233,88.05,88.05,0,0,1,106,237a102.56,102.56,0,0,1-73.85-46.49,60.07,60.07,0,0,1-4.92-11.75,86.37,86.37,0,0,1-3.27-15.36,108.9,108.9,0,0,1,2.77-50.51A91.17,91.17,0,0,1,58.34,69.25a105.18,105.18,0,0,1,51.89-20.46c3.86-.47,8.5.29,9.71,1.34.62.51.4,1.06-1.12,1.57A70.35,70.35,0,0,1,110,53.45a113.27,113.27,0,0,0-41.7,17c.41-1,2.22-2.31,4.3-3.61a61.7,61.7,0,0,0,5.74-3.72,79.59,79.59,0,0,0-14.06,7.59,78.18,78.18,0,0,0-12.12,10.2A96.75,96.75,0,0,1,69.42,66.75a98.37,98.37,0,0,0-21.9,19,89.43,89.43,0,0,0-15.45,26c-1.38,3.43-3.39,6.4-5.05,10a24.86,24.86,0,0,0-2.35,13.31A97.74,97.74,0,0,1,40,98.31,104.34,104.34,0,0,1,68.31,70.4a.61.61,0,0,0-.07.14A91.25,91.25,0,0,1,99.31,57.05c-3.44,1-6.84,2.18-9.86,3a103.21,103.21,0,0,1,48.49-2.17,108.41,108.41,0,0,0-34.46,1.85A96.89,96.89,0,0,0,71.14,73.24,90.82,90.82,0,0,0,46.05,97.72,83.58,83.58,0,0,0,32.84,129.3c2.28-6,4.38-12.88,7.36-19.34s6.73-12.35,11-15.85a91.67,91.67,0,0,0-19.73,57l-.51-4.6a60.35,60.35,0,0,0,1.07,20,105.09,105.09,0,0,0,6.23,19.12c.45,1.09.9,2.17,1.4,3.24l-1.4-3.24a91.64,91.64,0,0,1-6.79-34.52c.6,5.28,1.18,10.83,2.41,17.43,0-3.7-.57-8.86-.55-14a83.56,83.56,0,0,1,1.23-20.12,69.33,69.33,0,0,0,1.72,29.46c-1.66-13.64-.66-28,4-40.88A83.29,83.29,0,0,0,36.77,145a82.49,82.49,0,0,0,5.81,37.22L42,180.88c.37.9.79,1.79,1.2,2.69a82.1,82.1,0,0,0,7.27,13.32,48.5,48.5,0,0,0,9.33,9.69l1.57,1.57c-1.23-.75-2-1-.19,1.1a56,56,0,0,0,14.24,11.49c5.46,3.26,11.36,6,17.53,8.92A44,44,0,0,0,106,232.88a4.1,4.1,0,0,0,2.8.25c1.11.09,2.24.15,3.36.2a45.54,45.54,0,0,0,8.17.07c-2.66,0-5.42,0-8.17-.07l-3.06-.27a6.79,6.79,0,0,1,3-.37,84,84,0,0,1-27.23-7.91,89.56,89.56,0,0,1-23.59-16.63c1,.61,2.43,1.53,3.07,1.83-1.59-1.06-3.12-2.21-4.64-3.4A93.38,93.38,0,0,1,48,191.82a23.17,23.17,0,0,0,3.55,3.82,88.8,88.8,0,0,1-11.29-24.1A87,87,0,0,1,36.77,145,83.91,83.91,0,0,1,54.68,99.27a66,66,0,0,0-14.39,23.67A81.2,81.2,0,0,1,59.53,90,77.17,77.17,0,0,1,91.78,69.91c-3.88,2.76-9,6.32-10.53,9.2.54.54,7.53-2.62,3.76-.18-6.67,4.7-12.05,8.9-16,13s-6.36,8-6.41,11.84c.14.84,3.69-1.4,7-2.79s6.12-2.14,4.62-.1a81.84,81.84,0,0,0-11,16.16,48,48,0,0,0-3.31,6.3,2.84,2.84,0,0,0-.11,1.54,84.14,84.14,0,0,0-4.5,20.61c-.2,1.67-.3,3.33-.35,5a8.4,8.4,0,0,1-.93,2.26c.39,1.05.72,2.09,1,3.12A60.65,60.65,0,0,0,57.2,169a54.76,54.76,0,0,0,1.52,7.37c.25-.17.45-.7.9-.39A63.76,63.76,0,0,0,68,190.36a46.17,46.17,0,0,1,2.81,5.84c3.08,1.32,6.85,4.57,11.33,7.7a57.45,57.45,0,0,0,14.24,7.71l0-.08a69.47,69.47,0,0,0,14.22,3.88,21.27,21.27,0,0,1,2.22,1.19c1.29-.3,2.58-.22,3.22-.41,4,.6,7.37,1.07,10.87,1.32a9.68,9.68,0,0,1,3-1.46,45.83,45.83,0,0,0,7.53-1.47,76.46,76.46,0,0,0,8.51-2.44,74,74,0,0,0,25.74-15.48,2.3,2.3,0,0,1,1.2.44c.68-1.53,2.46-2.93,3.1-4.25-.06.3,0,.54.17.64a19.76,19.76,0,0,1,3-4.11,28.62,28.62,0,0,0,3.18-3.59,17.14,17.14,0,0,0,.91-2.7c.27-.39.52-.79.77-1.18,3.9-3.43,5.25-8.31,6.75-13.49a73,73,0,0,0,4.06-16c.51-4.36,1.65-6.09,2.24-9.28" fill="#189ab6"/>
  <path d="M1180.25,139.75h-5.07v-4.1h14.75v4.1h-5.07v13.47h-4.61Zm13.44-4.1h6.18l4.18,11.43,4.17-11.43h6.19v17.57h-4.61V141.8h-.08l-4.18,11.42h-3l-4.18-11.42h-.08v11.42h-4.6Z" fill="#405870"/>
</svg>
