<svg xmlns="http://www.w3.org/2000/svg" viewBox="0 0 480 360">
  <defs>
    <linearGradient id="pd-a" x1="0" x2="1" y1="0" y2="1">
      <stop offset="0" stop-color="#fff8db"/>
      <stop offset="1" stop-color="#ffe8a3"/>
    </linearGradient>
  </defs>
  <rect width="480" height="360" rx="28" fill="#f6f1e5"/>
  <circle cx="108" cy="92" r="56" fill="url(#pd-a)"/>
  <rect x="72" y="54" width="270" height="170" rx="18" fill="#ffffff"/>
  <rect x="102" y="86" width="104" height="12" rx="6" fill="#111111"/>
  <rect x="102" y="112" width="162" height="10" rx="5" fill="#c7c1b5"/>
  <rect x="102" y="138" width="136" height="10" rx="5" fill="#d7d0c5"/>
  <rect x="102" y="170" width="72" height="72" rx="18" fill="#fdbd12"/>
  <rect x="188" y="170" width="110" height="18" rx="9" fill="#ece7dc"/>
  <rect x="188" y="198" width="92" height="12" rx="6" fill="#ddd7cc"/>
  <rect x="188" y="218" width="70" height="12" rx="6" fill="#ddd7cc"/>
  <path d="M333 76c30 17 52 42 61 79 11 46 2 88-24 127" fill="none" stroke="#111111" stroke-linecap="round" stroke-width="10"/>
  <circle cx="368" cy="86" r="21" fill="#1abc9c"/>
  <circle cx="335" cy="286" r="22" fill="#111111"/>
  <circle cx="391" cy="220" r="12" fill="#fdbd12"/>
</svg>
