<svg xmlns="http://www.w3.org/2000/svg" xmlns:xlink="http://www.w3.org/1999/xlink" id="Group_6" data-name="Group 6" width="248.172" height="52.148" viewBox="0 0 248.172 52.148"><defs><clipPath id="clip-path"><rect id="Rectangle_7" data-name="Rectangle 7" width="248.172" height="52.148" fill="none"></rect></clipPath></defs><g id="Group_5" data-name="Group 5" clip-path="url(#clip-path)"><path id="Path_1" data-name="Path 1" d="M121.179,88.743c-.837,0-1.068-.534-1.585-1.157a2.559,2.559,0,0,0-2.083-.8c-1.389,0-2.155.588-2.155,1.549,0,1.194,1.051,1.229,3.009,1.728a12.888,12.888,0,0,1,3.1,1.015,3.059,3.059,0,0,1,1.567,2.938c0,2.493-1.852,4.132-5.022,4.132a6.17,6.17,0,0,1-3.9-1.14,2.843,2.843,0,0,1-1.264-2.119,1.19,1.19,0,0,1,1.193-1.3c.944,0,1.122.784,1.657,1.425a2.719,2.719,0,0,0,2.279.926c1.638,0,2.475-.57,2.475-1.657,0-1.175-1.068-1.389-3.4-1.923-2.885-.659-4.238-1.425-4.238-3.864,0-2.387,1.745-3.847,4.844-3.847a5.8,5.8,0,0,1,3.473.98,2.7,2.7,0,0,1,1.228,1.959,1.1,1.1,0,0,1-1.175,1.157" transform="translate(-61.302 -45.998)" fill="#0b2a4f"></path><path id="Path_2" data-name="Path 2" d="M154.889,91.4c0,4.132-2.439,6.749-6.268,6.749s-6.251-2.6-6.251-6.749,2.422-6.749,6.251-6.749,6.268,2.618,6.268,6.749m-9.83,0c0,2.849,1.336,4.452,3.561,4.452,2.244,0,3.6-1.6,3.6-4.452s-1.354-4.452-3.6-4.452c-2.226,0-3.561,1.6-3.561,4.452" transform="translate(-77.365 -45.998)" fill="#0b2a4f"></path><path id="Path_3" data-name="Path 3" d="M179.55,98.352c-.837,0-1.3-.481-1.3-1.407V87.4c0-1.443.3-2.013,1.6-2.013h6.09c.944,0,1.425.392,1.425,1.122,0,.713-.481,1.1-1.425,1.1H180.85v2.9h4.309c.944,0,1.425.392,1.425,1.122,0,.712-.481,1.1-1.425,1.1H180.85v4.2c0,.944-.427,1.407-1.3,1.407" transform="translate(-96.862 -46.4)" fill="#0b2a4f"></path><path id="Path_4" data-name="Path 4" d="M203.689,86.568c0-.748.427-1.14,1.283-1.14h7.978c.855,0,1.282.391,1.282,1.14s-.427,1.122-1.282,1.122h-2.671v9.278c0,.944-.427,1.407-1.318,1.407-.873,0-1.318-.463-1.318-1.407V87.69h-2.671c-.855,0-1.283-.356-1.283-1.122" transform="translate(-110.686 -46.422)" fill="#0b2a4f"></path><path id="Path_5" data-name="Path 5" d="M236.729,98.141c-1.122,0-1.228-.32-1.62-1.692l-2.671-9.26a3.672,3.672,0,0,1-.161-.855A1.249,1.249,0,0,1,233.56,85c.8,0,1.1.481,1.353,1.531l1.87,7.675,1.585-7.658c.232-1.122.605-1.549,1.692-1.549,1.193,0,1.442.534,1.674,1.638l1.567,7.568,1.781-7.39c.3-1.229.57-1.816,1.442-1.816.784,0,1.193.427,1.193,1.3a3.578,3.578,0,0,1-.142.819l-2.689,9.314c-.356,1.247-.392,1.709-1.567,1.709-1.122,0-1.336-.356-1.6-1.692l-1.674-8.281-1.692,8.263c-.267,1.354-.534,1.709-1.621,1.709" transform="translate(-126.221 -46.189)" fill="#0b2a4f"></path><path id="Path_6" data-name="Path 6" d="M271.541,98.141a1.153,1.153,0,0,1-1.265-1.157,1.81,1.81,0,0,1,.125-.677l3.543-9.955c.374-1.068.677-1.353,1.941-1.353,1.282,0,1.549.338,1.905,1.317l3.615,9.99a1.81,1.81,0,0,1,.125.677,1.168,1.168,0,0,1-1.283,1.157,1.207,1.207,0,0,1-1.264-.962l-.606-1.834h-4.968l-.588,1.834a1.225,1.225,0,0,1-1.282.962m2.564-4.95h3.561l-1.781-5.449Z" transform="translate(-146.87 -46.189)" fill="#0b2a4f"></path><path id="Path_7" data-name="Path 7" d="M304.08,98.353c-.873,0-1.318-.463-1.318-1.407V87.4c0-1.442.3-2.012,1.6-2.012h4.612c2.778,0,4.113,1.157,4.113,3.633a2.863,2.863,0,0,1-1.905,3.028,2.2,2.2,0,0,1,1.549,2.154c.072.748.036,1.318.107,1.71a12.616,12.616,0,0,1,.231,1.264,1.177,1.177,0,0,1-1.318,1.193c-1.46,0-1.532-1.015-1.656-2.9-.107-1.549-.179-2.262-1.906-2.262h-2.8v3.74c0,.944-.427,1.407-1.318,1.407M305.4,90.98h3.1c1.336,0,1.959-.516,1.959-1.692,0-1.1-.623-1.692-1.834-1.692H305.4Z" transform="translate(-164.523 -46.401)" fill="#0b2a4f"></path><path id="Path_8" data-name="Path 8" d="M344.3,97.017c0,.766-.481,1.175-1.425,1.175h-6.766c-1.3,0-1.6-.57-1.6-2.012V87.4c0-1.443.3-2.013,1.6-2.013h6.428c.944,0,1.425.392,1.425,1.122,0,.713-.481,1.1-1.425,1.1h-5.432v2.725h4.88c.944,0,1.407.373,1.407,1.1,0,.694-.463,1.086-1.407,1.086h-4.88v3.312h5.77c.944,0,1.425.392,1.425,1.175" transform="translate(-181.774 -46.4)" fill="#0b2a4f"></path><path id="Path_9" data-name="Path 9" d="M117.919,37.825v-14.9L121.606,37.5c.535,2.051,1.338,2.948,2.944,2.948,1.665,0,2.379-.867,2.914-2.948l3.687-14.569v14.9c0,1.814.624,2.621,2.081,2.621,1.427,0,2.051-.867,2.051-2.621V21.858c0-2.409-.535-3.36-2.676-3.36h-1.754c-1.873,0-2.289,1.041-2.914,3.449L124.549,35.06l-3.508-13.38c-.595-2.319-.863-3.182-3.033-3.182h-1.546c-2.171,0-2.676.952-2.676,3.36V37.825c0,1.784.594,2.621,2.081,2.621,1.427,0,2.051-.837,2.051-2.621m40.5-1.576h-9.633v-5.53h8.147c1.576,0,2.349-.654,2.349-1.814,0-1.219-.773-1.843-2.349-1.843h-8.147v-4.52h9.068c1.576,0,2.379-.654,2.379-1.843,0-1.219-.8-1.873-2.379-1.873H147.118c-2.171,0-2.676.952-2.676,3.36V36.814c0,2.409.505,3.36,2.676,3.36h11.3c1.576,0,2.379-.684,2.379-1.962,0-1.308-.8-1.962-2.379-1.962M168.825,22.6h4.46V38.092c0,1.576.743,2.354,2.2,2.354,1.486,0,2.2-.778,2.2-2.354V22.6h4.46q2.142,0,2.141-1.873c0-1.249-.713-1.9-2.141-1.9h-13.32c-1.427,0-2.141.654-2.141,1.9,0,1.279.714,1.873,2.141,1.873M191.6,38.836l.982-3.062h8.3l1.011,3.062A2.02,2.02,0,0,0,204,40.446a1.954,1.954,0,0,0,2.141-1.937,3.038,3.038,0,0,0-.208-1.13L199.9,20.7c-.594-1.636-1.041-2.2-3.181-2.2-2.111,0-2.617.476-3.241,2.26l-5.917,16.621a3.03,3.03,0,0,0-.208,1.13,1.928,1.928,0,0,0,2.111,1.937,2.052,2.052,0,0,0,2.141-1.61m5.115-15.758,2.973,9.1h-5.946Zm21.5,15.015V31.075h7.195c1.577,0,2.379-.654,2.379-1.843,0-1.219-.8-1.873-2.379-1.873h-7.195V22.542h8.5c1.576,0,2.379-.654,2.379-1.843,0-1.219-.8-1.873-2.379-1.873H216.549c-2.171,0-2.676.952-2.676,3.36V38.092c0,1.546.773,2.354,2.17,2.354,1.457,0,2.171-.778,2.171-2.354M245.9,18.231c-6.393,0-10.436,4.34-10.436,11.269S239.5,40.773,245.9,40.773,256.363,36.4,256.363,29.5,252.29,18.231,245.9,18.231m0,3.835c3.747,0,6.006,2.676,6.006,7.433s-2.259,7.433-6.006,7.433c-3.716,0-5.947-2.676-5.947-7.433s2.23-7.433,5.947-7.433m28.188-3.835c-6.393,0-10.436,4.34-10.436,11.269s4.044,11.274,10.436,11.274S284.552,36.4,284.552,29.5s-4.073-11.269-10.466-11.269m0,3.835c3.746,0,6.006,2.676,6.006,7.433s-2.26,7.433-6.006,7.433c-3.717,0-5.947-2.676-5.947-7.433s2.23-7.433,5.947-7.433M297.16,38.092V31.848h4.668c2.884,0,3,1.189,3.181,3.776.208,3.151.327,4.851,2.766,4.851a1.969,1.969,0,0,0,2.2-2,20.938,20.938,0,0,0-.386-2.111c-.119-.654-.059-1.606-.178-2.854a3.679,3.679,0,0,0-2.587-3.6c2.051-.654,3.181-2.433,3.181-5.04,0-4.118-2.23-6.05-6.868-6.05h-7.7c-2.171,0-2.676.952-2.676,3.36V38.092c0,1.576.743,2.354,2.2,2.354,1.487,0,2.2-.778,2.2-2.354m0-15.58h5.381c2.022,0,3.063.976,3.063,2.81,0,1.953-1.041,2.81-3.271,2.81H297.16Z" transform="translate(-61.832 -9.907)" fill="#00254c"></path><path id="Path_10" data-name="Path 10" d="M28.353,68.018v-14.3L14.064,68.007Z" transform="translate(-7.642 -29.19)" fill="#00254c" fill-rule="evenodd"></path><path id="Path_11" data-name="Path 11" d="M.005,39.684,0,53.989,14.313,39.677Z" transform="translate(0 -21.561)" fill="#00254c" fill-rule="evenodd"></path><path id="Path_12" data-name="Path 12" d="M36.923,38.829a1.91,1.91,0,0,0,1.9-1.9V1.9a1.911,1.911,0,0,0-1.9-1.9H1.9A1.91,1.91,0,0,0,0,1.9L.005,9.059H29.77V38.822Z" fill="#0b2a4f" fill-rule="evenodd"></path></g></svg>